<svg xmlns="http://www.w3.org/2000/svg" width="1200" height="411" viewBox="0 0 1200 411" version="1.1"><path d="M 479.486 198 C 479.486 275.275, 479.605 306.888, 479.750 268.250 C 479.895 229.613, 479.895 166.388, 479.750 127.750 C 479.605 89.113, 479.486 120.725, 479.486 198 M 483.486 198 C 483.486 275.275, 483.605 306.888, 483.750 268.250 C 483.895 229.613, 483.895 166.388, 483.750 127.750 C 483.605 89.113, 483.486 120.725, 483.486 198 M 266.816 99.749 C 277.440 99.911, 294.540 99.911, 304.816 99.748 C 315.092 99.586, 306.400 99.453, 285.500 99.454 C 264.600 99.454, 256.192 99.587, 266.816 99.749 M 239.250 100.689 C 240.213 100.941, 241.787 100.941, 242.750 100.689 C 243.713 100.438, 242.925 100.232, 241 100.232 C 239.075 100.232, 238.287 100.438, 239.250 100.689 M 328.269 100.693 C 329.242 100.947, 330.592 100.930, 331.269 100.656 C 331.946 100.382, 331.150 100.175, 329.500 100.195 C 327.850 100.215, 327.296 100.439, 328.269 100.693 M 231.500 102 C 228.952 103.095, 231.581 103.095, 235 102 C 237.010 101.356, 237.108 101.194, 235.500 101.170 C 234.400 101.154, 232.600 101.527, 231.500 102 M 334.813 101.683 C 335.534 101.972, 336.397 101.936, 336.729 101.604 C 337.061 101.272, 336.471 101.036, 335.417 101.079 C 334.252 101.127, 334.015 101.364, 334.813 101.683 M 338.813 102.683 C 339.534 102.972, 340.397 102.936, 340.729 102.604 C 341.061 102.272, 340.471 102.036, 339.417 102.079 C 338.252 102.127, 338.015 102.364, 338.813 102.683 M 227.333 103.667 C 227.700 104.033, 228.300 104.033, 228.667 103.667 C 229.033 103.300, 228.733 103, 228 103 C 227.267 103, 226.967 103.300, 227.333 103.667 M 342.333 103.667 C 342.700 104.033, 343.300 104.033, 343.667 103.667 C 344.033 103.300, 343.733 103, 343 103 C 342.267 103, 341.967 103.300, 342.333 103.667 M 217.340 107.466 C 213.529 109.373, 208.631 112.542, 206.456 114.509 C 202.500 118.085, 202.500 118.085, 207.500 114.384 C 210.250 112.349, 215.650 109.196, 219.500 107.378 C 223.350 105.559, 225.998 104.056, 225.384 104.036 C 224.771 104.016, 221.151 105.560, 217.340 107.466 M 349.669 106.392 C 361.774 112.067, 375.489 124.153, 381.540 134.477 C 384.864 140.150, 385.946 140.466, 382.814 134.850 C 376.478 123.487, 357.237 107.242, 347 104.611 C 345.625 104.258, 346.826 105.059, 349.669 106.392 M 267.315 108.749 C 277.664 108.912, 294.314 108.911, 304.315 108.748 C 314.317 108.585, 305.850 108.452, 285.500 108.453 C 265.150 108.453, 256.967 108.586, 267.315 108.749 M 240.250 109.689 C 241.213 109.941, 242.787 109.941, 243.750 109.689 C 244.713 109.438, 243.925 109.232, 242 109.232 C 240.075 109.232, 239.287 109.438, 240.250 109.689 M 327.250 109.689 C 328.212 109.941, 329.788 109.941, 330.750 109.689 C 331.712 109.438, 330.925 109.232, 329 109.232 C 327.075 109.232, 326.288 109.438, 327.250 109.689 M 232.500 111 C 229.952 112.095, 232.581 112.095, 236 111 C 238.010 110.356, 238.108 110.194, 236.500 110.170 C 235.400 110.154, 233.600 110.527, 232.500 111 M 335 111 C 338.419 112.095, 341.048 112.095, 338.500 111 C 337.400 110.527, 335.600 110.154, 334.500 110.170 C 332.892 110.194, 332.990 110.356, 335 111 M 227 113 C 226.175 113.533, 225.950 113.969, 226.500 113.969 C 227.050 113.969, 228.175 113.533, 229 113 C 229.825 112.467, 230.050 112.031, 229.500 112.031 C 228.950 112.031, 227.825 112.467, 227 113 M 342 113 C 342.825 113.533, 343.950 113.969, 344.500 113.969 C 345.050 113.969, 344.825 113.533, 344 113 C 343.175 112.467, 342.050 112.031, 341.500 112.031 C 340.950 112.031, 341.175 112.467, 342 113 M 221.441 115.555 C 219.611 117.022, 219.643 117.042, 222 115.920 C 225.061 114.462, 225.628 114, 224.358 114 C 223.821 114, 222.509 114.700, 221.441 115.555 M 352 118.115 C 355.575 120.369, 359.365 122.952, 360.422 123.856 C 361.565 124.834, 362.023 124.954, 361.553 124.153 C 360.686 122.676, 347.652 113.994, 346.325 114.010 C 345.871 114.015, 348.425 115.862, 352 118.115 M 214.150 120.006 C 211.868 121.660, 210 123.258, 210 123.557 C 210 124.027, 215.634 120.192, 218.450 117.805 C 220.819 115.798, 217.891 117.296, 214.150 120.006 M 671 122.500 C 671 122.775, 671.225 123, 671.500 123 C 671.775 123, 672 122.775, 672 122.500 C 672 122.225, 671.775 122, 671.500 122 C 671.225 122, 671 122.225, 671 122.500 M 680.545 124.455 C 683.391 127.300, 683.731 131.411, 681.420 135.027 C 679.840 137.500, 679.840 137.500, 681.920 135.139 C 685.224 131.389, 683.119 122, 678.973 122 C 678.488 122, 679.195 123.105, 680.545 124.455 M 667.895 124.626 C 664.520 128.693, 667.713 138.208, 672.361 137.932 C 672.987 137.895, 672.539 137.399, 671.364 136.830 C 667.384 134.903, 666.139 130.174, 668.447 125.750 C 670.071 122.636, 669.876 122.239, 667.895 124.626 M 205.437 127.250 C 202.500 130.500, 202.500 130.500, 205.750 127.563 C 208.779 124.825, 209.460 124, 208.687 124 C 208.515 124, 207.052 125.463, 205.437 127.250 M 192.215 128.750 C 188.629 133.302, 182.999 142.385, 183.003 143.611 C 183.004 144.100, 184.632 141.800, 186.620 138.500 C 188.608 135.200, 191.570 130.813, 193.202 128.750 C 194.833 126.688, 195.943 125, 195.668 125 C 195.393 125, 193.839 126.688, 192.215 128.750 M 372.724 137.743 C 375.229 141.459, 378.181 146.648, 379.283 149.274 C 380.385 151.899, 381.453 153.881, 381.656 153.677 C 382.784 152.549, 371.896 133.290, 369.181 131.612 C 368.624 131.268, 370.218 134.027, 372.724 137.743 M 197.881 136.250 C 194.544 140.778, 188.549 152.850, 187.576 157 C 186.900 159.882, 186.690 160.290, 192.169 148.085 C 193.753 144.557, 196.612 139.495, 198.523 136.835 C 200.433 134.176, 201.775 132, 201.505 132 C 201.234 132, 199.603 133.912, 197.881 136.250 M 677.333 137.667 C 677.700 138.033, 678.300 138.033, 678.667 137.667 C 679.033 137.300, 678.733 137, 678 137 C 677.267 137, 676.967 137.300, 677.333 137.667 M 890.204 146.750 C 890 156, 890 156, 882.500 156 C 875 156, 875 156, 875.180 161.250 C 875.360 166.500, 875.360 166.500, 875.735 161.750 C 876.110 157, 876.110 157, 883.086 157 C 891.357 157, 891.203 157.222, 890.747 145.916 C 890.407 137.500, 890.407 137.500, 890.204 146.750 M 901.208 147.250 C 901 157, 901 157, 913.945 157 C 926.890 157, 926.890 157, 927.265 161.750 C 927.640 166.500, 927.640 166.500, 927.820 161.250 C 928 156, 928 156, 915.038 156 C 902.075 156, 902.075 156, 901.745 146.750 C 901.415 137.500, 901.415 137.500, 901.208 147.250 M 387.570 145.562 C 388.939 148.658, 390.950 154.186, 392.038 157.846 C 393.326 162.179, 393.808 163.105, 393.420 160.500 C 392.733 155.897, 387.306 141.307, 385.974 140.484 C 385.482 140.180, 386.200 142.465, 387.570 145.562 M 180.098 150.469 C 178.944 153.552, 178.023 156.621, 178.052 157.288 C 178.081 157.954, 179.184 155.591, 180.504 152.035 C 181.824 148.480, 182.744 145.411, 182.550 145.216 C 182.355 145.021, 181.251 147.385, 180.098 150.469 M 241.813 146.683 C 242.534 146.972, 243.397 146.936, 243.729 146.604 C 244.061 146.272, 243.471 146.036, 242.417 146.079 C 241.252 146.127, 241.015 146.364, 241.813 146.683 M 240 165 C 240 185.634, 235.436 192.859, 234.789 173.250 C 234.366 160.434, 231.529 160.436, 231.438 173.253 C 231.376 182.005, 231.376 182.005, 231.727 173.503 C 232.186 162.389, 233.841 162.554, 234.211 173.750 C 234.880 194.009, 241 186.629, 241 165.563 C 241 155.904, 240.775 148, 240.500 148 C 240.225 148, 240 155.650, 240 165 M 244.225 165.313 C 244 183.127, 244 183.127, 247.250 182.813 C 250.500 182.500, 250.500 182.500, 250.784 171.750 C 250.940 165.838, 251.487 161, 252 161 C 252.513 161, 253.060 165.838, 253.216 171.750 C 253.563 184.868, 259.384 189.818, 260.154 177.649 C 260.344 174.645, 260.163 172.396, 259.750 172.652 C 259.337 172.908, 259 175.116, 259 177.559 C 259 181.629, 258.791 182, 256.500 182 C 254 182, 254 182, 254 171 C 254 160.667, 253.879 160, 252 160 C 250.121 160, 250 160.667, 250 171 C 250 182, 250 182, 247.524 182 C 245.047 182, 245.047 182, 244.748 164.750 C 244.450 147.500, 244.450 147.500, 244.225 165.313 M 289.200 150.200 C 288.371 151.029, 288 156.133, 288 166.700 C 288 182, 288 182, 285.500 182 C 283 182, 283 182, 283 170.469 C 283 160.818, 282.739 158.837, 281.399 158.323 C 278.737 157.301, 278.031 159.997, 278.015 171.250 C 278 182, 278 182, 275.500 182 C 273.017 182, 273 181.938, 273 172.927 C 273 159.542, 269.655 159.837, 269.211 173.261 C 268.868 183.624, 264.578 187.139, 263.732 177.750 C 263.349 173.500, 263.349 173.500, 263.175 178.313 C 263 183.127, 263 183.127, 266.250 182.813 C 269.500 182.500, 269.500 182.500, 269.789 173.750 C 269.948 168.938, 270.493 165, 271 165 C 271.507 165, 272.052 168.938, 272.211 173.750 C 272.737 189.688, 278.827 187.639, 279.218 171.393 C 279.628 154.365, 282 154.013, 282 170.980 C 282 192.906, 288.301 188.874, 289 166.500 C 289.392 153.944, 289.785 150.559, 290.824 150.775 C 291.553 150.926, 291.864 150.588, 291.515 150.025 C 290.720 148.739, 290.656 148.744, 289.200 150.200 M 317.399 150.250 C 317.003 150.938, 317.048 151.166, 317.498 150.759 C 317.948 150.351, 319.032 150.576, 319.908 151.259 C 321.317 152.357, 321.342 152.298, 320.128 150.750 C 318.492 148.664, 318.328 148.634, 317.399 150.250 M 292.222 167.250 C 292 183, 292 183, 295.250 182.850 C 298.237 182.712, 298.280 182.667, 295.776 182.286 C 293.051 181.872, 293.051 181.872, 292.748 166.686 C 292.444 151.500, 292.444 151.500, 292.222 167.250 M 320.456 168 C 320.513 186.619, 326.197 191.717, 326.790 173.680 C 327.185 161.651, 329.382 162.127, 329.789 174.331 C 330.078 183, 330.078 183, 333.289 182.850 C 336.313 182.709, 336.340 182.676, 333.750 182.284 C 331.020 181.870, 331 181.810, 331 174.056 C 331 168.437, 330.591 165.906, 329.544 165.036 C 326.887 162.831, 326 164.964, 326 173.559 C 326 191.165, 321.141 185.806, 320.733 167.750 C 320.412 153.500, 320.412 153.500, 320.456 168 M 382 156 C 382 156.733, 382.300 157.033, 382.667 156.667 C 383.033 156.300, 383.033 155.700, 382.667 155.333 C 382.300 154.967, 382 155.267, 382 156 M 983.264 155.718 C 984.784 155.947, 987.034 155.941, 988.264 155.704 C 989.494 155.467, 988.250 155.279, 985.500 155.286 C 982.750 155.294, 981.744 155.488, 983.264 155.718 M 606.250 156.689 C 607.212 156.941, 608.788 156.941, 609.750 156.689 C 610.712 156.438, 609.925 156.232, 608 156.232 C 606.075 156.232, 605.288 156.438, 606.250 156.689 M 622.269 156.693 C 623.242 156.947, 624.592 156.930, 625.269 156.656 C 625.946 156.382, 625.150 156.175, 623.500 156.195 C 621.850 156.215, 621.296 156.439, 622.269 156.693 M 669.239 198.750 C 669.478 241.500, 669.478 241.500, 669.750 199.250 C 670.022 157, 670.022 157, 675 157 C 679.978 157, 679.978 157, 680.250 199.250 C 680.522 241.500, 680.522 241.500, 680.761 198.750 C 681 156, 681 156, 675 156 C 669 156, 669 156, 669.239 198.750 M 712.242 214.250 C 712.483 272.500, 712.483 272.500, 712.750 214.750 C 713.016 157, 713.016 157, 718.008 157 C 723 157, 723 157, 723 165.205 C 723 173.410, 723 173.410, 727.750 168.404 C 730.362 165.651, 733.625 162.614, 735 161.656 C 737.223 160.106, 737.130 160.111, 734.157 161.706 C 732.318 162.693, 729.281 165.189, 727.407 167.253 C 724 171.006, 724 171.006, 724 163.503 C 724 156, 724 156, 718 156 C 712 156, 712 156, 712.242 214.250 M 746.750 156.662 C 747.438 156.940, 748.563 156.940, 749.250 156.662 C 749.938 156.385, 749.375 156.158, 748 156.158 C 746.625 156.158, 746.063 156.385, 746.750 156.662 M 763.813 156.683 C 764.534 156.972, 765.397 156.936, 765.729 156.604 C 766.061 156.272, 765.471 156.036, 764.417 156.079 C 763.252 156.127, 763.015 156.364, 763.813 156.683 M 821.239 198.750 C 821.478 241.500, 821.478 241.500, 821.750 199.250 C 822.022 157, 822.022 157, 827.011 157 C 832 157, 832 157, 832 164.500 C 832 173.062, 832.453 173.439, 836.210 168.005 C 837.700 165.850, 841.300 162.721, 844.210 161.053 C 847.119 159.384, 849.090 158.015, 848.588 158.009 C 846.501 157.988, 838.930 163.262, 836.074 166.727 C 833 170.456, 833 170.456, 833 163.228 C 833 156, 833 156, 827 156 C 821 156, 821 156, 821.239 198.750 M 854.813 156.683 C 855.534 156.972, 856.397 156.936, 856.729 156.604 C 857.061 156.272, 856.471 156.036, 855.417 156.079 C 854.252 156.127, 854.015 156.364, 854.813 156.683 M 864.310 161.500 C 864.315 164.800, 864.502 166.029, 864.725 164.232 C 864.947 162.435, 864.943 159.735, 864.715 158.232 C 864.486 156.729, 864.304 158.200, 864.310 161.500 M 974.813 156.683 C 975.534 156.972, 976.397 156.936, 976.729 156.604 C 977.061 156.272, 976.471 156.036, 975.417 156.079 C 974.252 156.127, 974.015 156.364, 974.813 156.683 M 993.750 156.662 C 994.438 156.940, 995.563 156.940, 996.250 156.662 C 996.938 156.385, 996.375 156.158, 995 156.158 C 993.625 156.158, 993.063 156.385, 993.750 156.662 M 601.813 157.683 C 602.534 157.972, 603.397 157.936, 603.729 157.604 C 604.061 157.272, 603.471 157.036, 602.417 157.079 C 601.252 157.127, 601.015 157.364, 601.813 157.683 M 628.813 157.683 C 629.534 157.972, 630.397 157.936, 630.729 157.604 C 631.061 157.272, 630.471 157.036, 629.417 157.079 C 628.252 157.127, 628.015 157.364, 628.813 157.683 M 743.333 157.667 C 743.700 158.033, 744.300 158.033, 744.667 157.667 C 745.033 157.300, 744.733 157, 744 157 C 743.267 157, 742.967 157.300, 743.333 157.667 M 768.333 157.667 C 768.700 158.033, 769.300 158.033, 769.667 157.667 C 770.033 157.300, 769.733 157, 769 157 C 768.267 157, 767.967 157.300, 768.333 157.667 M 850.333 157.667 C 850.700 158.033, 851.300 158.033, 851.667 157.667 C 852.033 157.300, 851.733 157, 851 157 C 850.267 157, 849.967 157.300, 850.333 157.667 M 970.813 157.683 C 971.534 157.972, 972.397 157.936, 972.729 157.604 C 973.061 157.272, 972.471 157.036, 971.417 157.079 C 970.252 157.127, 970.015 157.364, 970.813 157.683 M 998.333 157.667 C 998.700 158.033, 999.300 158.033, 999.667 157.667 C 1000.033 157.300, 999.733 157, 999 157 C 998.267 157, 997.967 157.300, 998.333 157.667 M 336.437 159.102 C 335.940 159.907, 336.113 160.048, 336.957 159.526 C 337.691 159.073, 338.629 159.323, 339.188 160.122 C 339.994 161.273, 340.088 161.264, 339.764 160.063 C 339.245 158.143, 337.365 157.600, 336.437 159.102 M 383.141 159 C 383.141 159.825, 383.527 161.400, 384 162.500 C 384.542 163.761, 384.859 163.945, 384.859 163 C 384.859 162.175, 384.473 160.600, 384 159.500 C 383.458 158.239, 383.141 158.055, 383.141 159 M 598.333 158.667 C 598.700 159.033, 599.300 159.033, 599.667 158.667 C 600.033 158.300, 599.733 158, 599 158 C 598.267 158, 597.967 158.300, 598.333 158.667 M 632.813 158.683 C 633.534 158.972, 634.397 158.936, 634.729 158.604 C 635.061 158.272, 634.471 158.036, 633.417 158.079 C 632.252 158.127, 632.015 158.364, 632.813 158.683 M 740.333 158.667 C 740.700 159.033, 741.300 159.033, 741.667 158.667 C 742.033 158.300, 741.733 158, 741 158 C 740.267 158, 739.967 158.300, 740.333 158.667 M 771.333 158.667 C 771.700 159.033, 772.300 159.033, 772.667 158.667 C 773.033 158.300, 772.733 158, 772 158 C 771.267 158, 770.967 158.300, 771.333 158.667 M 962.500 160.887 C 935.296 176.495, 934.588 222.901, 961.360 235.546 C 963.087 236.361, 963.620 236.460, 962.545 235.764 C 935.019 217.968, 935.826 176.565, 964 161.063 C 967.025 159.398, 969.050 158.032, 968.500 158.027 C 967.950 158.023, 965.250 159.310, 962.500 160.887 M 1005.044 160.461 C 1014.334 165.302, 1018.756 171.802, 1014.655 174.588 C 1010.162 177.642, 1009.970 177.626, 1006.437 173.914 C 1004.822 172.217, 1002.600 170.346, 1001.500 169.757 C 1000.400 169.169, 1001.750 170.765, 1004.500 173.304 C 1010.424 178.773, 1010 178.690, 1015.021 175.367 C 1020.762 171.568, 1009.651 157.554, 1001.290 158.047 C 1000.855 158.072, 1002.545 159.159, 1005.044 160.461 M 177.079 160.583 C 177.127 161.748, 177.364 161.985, 177.683 161.188 C 177.972 160.466, 177.936 159.603, 177.604 159.271 C 177.272 158.939, 177.036 159.529, 177.079 160.583 M 596 159.500 C 596 159.775, 596.225 160, 596.500 160 C 596.775 160, 597 159.775, 597 159.500 C 597 159.225, 596.775 159, 596.500 159 C 596.225 159, 596 159.225, 596 159.500 M 637 160 C 637.825 160.533, 638.950 160.969, 639.500 160.969 C 640.050 160.969, 639.825 160.533, 639 160 C 638.175 159.467, 637.050 159.031, 636.500 159.031 C 635.950 159.031, 636.175 159.467, 637 160 M 738 159.500 C 738 159.775, 738.225 160, 738.500 160 C 738.775 160, 739 159.775, 739 159.500 C 739 159.225, 738.775 159, 738.500 159 C 738.225 159, 738 159.225, 738 159.500 M 774 159.500 C 774 159.775, 774.225 160, 774.500 160 C 774.775 160, 775 159.775, 775 159.500 C 775 159.225, 774.775 159, 774.500 159 C 774.225 159, 774 159.225, 774 159.500 M 186.158 162 C 186.158 163.375, 186.385 163.938, 186.662 163.250 C 186.940 162.563, 186.940 161.438, 186.662 160.750 C 186.385 160.063, 186.158 160.625, 186.158 162 M 594 160.500 C 594 160.775, 594.225 161, 594.500 161 C 594.775 161, 595 160.775, 595 160.500 C 595 160.225, 594.775 160, 594.500 160 C 594.225 160, 594 160.225, 594 160.500 M 776 160.500 C 776 160.775, 776.225 161, 776.500 161 C 776.775 161, 777 160.775, 777 160.500 C 777 160.225, 776.775 160, 776.500 160 C 776.225 160, 776 160.225, 776 160.500 M 588.578 164.362 C 576.752 175.515, 583.313 201.802, 597.710 200.953 C 598.145 200.928, 596.389 199.808, 593.809 198.464 C 581.209 191.903, 578.896 174.922, 589.235 164.888 C 591.438 162.749, 592.994 161, 592.692 161 C 592.390 161, 590.538 162.513, 588.578 164.362 M 641 161.500 C 641 161.775, 641.225 162, 641.500 162 C 641.775 162, 642 161.775, 642 161.500 C 642 161.225, 641.775 161, 641.500 161 C 641.225 161, 641 161.225, 641 161.500 M 780.500 163.152 C 801.900 179.287, 803.760 213.203, 784.226 231.085 C 781.077 233.968, 779.419 235.837, 780.542 235.239 C 804.377 222.551, 803.968 173.814, 779.928 162.075 C 778.069 161.168, 778.203 161.420, 780.500 163.152 M 643.699 163.090 C 644.631 164.029, 644.583 164.876, 643.485 166.899 C 640.544 172.316, 640.529 172.325, 637.182 170.594 C 632.812 168.335, 631.779 168.689, 636 171 C 640.688 173.567, 640.560 173.607, 643.458 168.662 C 646.479 163.507, 646.493 163.402, 644.250 162.548 C 642.886 162.029, 642.764 162.148, 643.699 163.090 M 176.158 165 C 176.158 166.375, 176.385 166.938, 176.662 166.250 C 176.940 165.563, 176.940 164.438, 176.662 163.750 C 176.385 163.063, 176.158 163.625, 176.158 165 M 339.365 172.500 C 339.368 178, 339.536 180.122, 339.738 177.216 C 339.941 174.311, 339.939 169.811, 339.734 167.216 C 339.528 164.622, 339.363 167, 339.365 172.500 M 185.158 167 C 185.158 168.375, 185.385 168.938, 185.662 168.250 C 185.940 167.563, 185.940 166.438, 185.662 165.750 C 185.385 165.063, 185.158 165.625, 185.158 167 M 385.158 167 C 385.158 168.375, 385.385 168.938, 385.662 168.250 C 385.940 167.563, 385.940 166.438, 385.662 165.750 C 385.385 165.063, 385.158 165.625, 385.158 167 M 394.195 167.500 C 394.215 169.150, 394.439 169.704, 394.693 168.731 C 394.947 167.758, 394.930 166.408, 394.656 165.731 C 394.382 165.054, 394.175 165.850, 394.195 167.500 M 983.250 165.689 C 984.212 165.941, 985.788 165.941, 986.750 165.689 C 987.712 165.438, 986.925 165.232, 985 165.232 C 983.075 165.232, 982.288 165.438, 983.250 165.689 M 607.750 166.662 C 608.438 166.940, 609.563 166.940, 610.250 166.662 C 610.938 166.385, 610.375 166.158, 609 166.158 C 607.625 166.158, 607.063 166.385, 607.750 166.662 M 621.750 166.662 C 622.438 166.940, 623.563 166.940, 624.250 166.662 C 624.938 166.385, 624.375 166.158, 623 166.158 C 621.625 166.158, 621.063 166.385, 621.750 166.662 M 747.750 166.662 C 748.438 166.940, 749.563 166.940, 750.250 166.662 C 750.938 166.385, 750.375 166.158, 749 166.158 C 747.625 166.158, 747.063 166.385, 747.750 166.662 M 760.813 166.683 C 761.534 166.972, 762.397 166.936, 762.729 166.604 C 763.061 166.272, 762.471 166.036, 761.417 166.079 C 760.252 166.127, 760.015 166.364, 760.813 166.683 M 860.333 166.667 C 860.700 167.033, 861.300 167.033, 861.667 166.667 C 862.033 166.300, 861.733 166, 861 166 C 860.267 166, 859.967 166.300, 860.333 166.667 M 890 196.249 C 890.565 230.415, 891.365 233.956, 899.489 238.248 C 900.595 238.832, 900.034 237.931, 898.242 236.246 C 891.384 229.797, 891.046 227.881, 891.022 195.250 C 891.010 179.162, 890.663 166, 890.250 165.999 C 889.837 165.998, 889.725 179.611, 890 196.249 M 901.207 192.007 C 900.971 222.180, 902.807 231, 909.322 231 C 909.843 231, 909.081 230.065, 907.629 228.922 C 902.664 225.017, 902.533 224.208, 901.957 194 C 901.413 165.500, 901.413 165.500, 901.207 192.007 M 976.813 166.683 C 977.534 166.972, 978.397 166.936, 978.729 166.604 C 979.061 166.272, 978.471 166.036, 977.417 166.079 C 976.252 166.127, 976.015 166.364, 976.813 166.683 M 991.813 166.683 C 992.534 166.972, 993.397 166.936, 993.729 166.604 C 994.061 166.272, 993.471 166.036, 992.417 166.079 C 991.252 166.127, 991.015 166.364, 991.813 166.683 M 603.333 167.667 C 603.700 168.033, 604.300 168.033, 604.667 167.667 C 605.033 167.300, 604.733 167, 604 167 C 603.267 167, 602.967 167.300, 603.333 167.667 M 627.333 167.667 C 627.700 168.033, 628.300 168.033, 628.667 167.667 C 629.033 167.300, 628.733 167, 628 167 C 627.267 167, 626.967 167.300, 627.333 167.667 M 744.333 167.667 C 744.700 168.033, 745.300 168.033, 745.667 167.667 C 746.033 167.300, 745.733 167, 745 167 C 744.267 167, 743.967 167.300, 744.333 167.667 M 766 168 C 766.825 168.533, 767.950 168.969, 768.500 168.969 C 769.050 168.969, 768.825 168.533, 768 168 C 767.175 167.467, 766.050 167.031, 765.500 167.031 C 764.950 167.031, 765.175 167.467, 766 168 M 853.750 167.662 C 854.438 167.940, 855.563 167.940, 856.250 167.662 C 856.938 167.385, 856.375 167.158, 855 167.158 C 853.625 167.158, 853.063 167.385, 853.750 167.662 M 973.333 167.667 C 973.700 168.033, 974.300 168.033, 974.667 167.667 C 975.033 167.300, 974.733 167, 974 167 C 973.267 167, 972.967 167.300, 973.333 167.667 M 995.333 167.667 C 995.700 168.033, 996.300 168.033, 996.667 167.667 C 997.033 167.300, 996.733 167, 996 167 C 995.267 167, 994.967 167.300, 995.333 167.667 M 299.206 168.622 C 300.551 169.022, 300.974 170.542, 301.206 175.815 C 301.572 184.135, 306.830 186.416, 308.069 178.793 C 308.400 176.753, 308.295 175.318, 307.836 175.602 C 307.376 175.886, 307 177.441, 307 179.059 C 307 186.338, 302.126 182.780, 301.796 175.260 C 301.537 169.367, 301.249 168.495, 299.500 168.318 C 298.027 168.168, 297.950 168.249, 299.206 168.622 M 601 168.500 C 601 168.775, 601.225 169, 601.500 169 C 601.775 169, 602 168.775, 602 168.500 C 602 168.225, 601.775 168, 601.500 168 C 601.225 168, 601 168.225, 601 168.500 M 630.333 168.667 C 630.700 169.033, 631.300 169.033, 631.667 168.667 C 632.033 168.300, 631.733 168, 631 168 C 630.267 168, 629.967 168.300, 630.333 168.667 M 742 168.500 C 742 168.775, 742.225 169, 742.500 169 C 742.775 169, 743 168.775, 743 168.500 C 743 168.225, 742.775 168, 742.500 168 C 742.225 168, 742 168.225, 742 168.500 M 850.333 168.667 C 850.700 169.033, 851.300 169.033, 851.667 168.667 C 852.033 168.300, 851.733 168, 851 168 C 850.267 168, 849.967 168.300, 850.333 168.667 M 971 168.500 C 971 168.775, 971.225 169, 971.500 169 C 971.775 169, 972 168.775, 972 168.500 C 972 168.225, 971.775 168, 971.500 168 C 971.225 168, 971 168.225, 971 168.500 M 998 168.500 C 998 168.775, 998.225 169, 998.500 169 C 998.775 169, 999 168.775, 999 168.500 C 999 168.225, 998.775 168, 998.500 168 C 998.225 168, 998 168.225, 998 168.500 M 175.300 174 C 175.300 177.025, 175.487 178.262, 175.716 176.750 C 175.945 175.238, 175.945 172.762, 175.716 171.250 C 175.487 169.738, 175.300 170.975, 175.300 174 M 596.661 171.612 C 591.637 176.636, 592.471 186.074, 598.206 189.088 C 600.239 190.157, 600.185 189.975, 597.730 187.491 C 592.900 182.602, 592.910 176.847, 597.758 171.750 C 601.089 168.249, 600.143 168.130, 596.661 171.612 M 740 169.500 C 740 169.775, 740.225 170, 740.500 170 C 740.775 170, 741 169.775, 741 169.500 C 741 169.225, 740.775 169, 740.500 169 C 740.225 169, 740 169.225, 740 169.500 M 772 170.679 C 791.522 184.467, 790.373 218.313, 770.071 227.468 C 767.821 228.483, 766.166 229.499, 766.393 229.726 C 767.377 230.710, 774.926 225.804, 778.660 221.753 C 791.894 207.396, 788.691 179.067, 772.890 170.706 C 769.751 169.046, 769.685 169.044, 772 170.679 M 848 169.500 C 848 169.775, 848.225 170, 848.500 170 C 848.775 170, 849 169.775, 849 169.500 C 849 169.225, 848.775 169, 848.500 169 C 848.225 169, 848 169.225, 848 169.500 M 964.828 172.294 C 949.304 184.111, 949.547 214.287, 965.252 225.104 C 967.901 226.928, 967.721 226.605, 964.276 223.348 C 949.405 209.291, 951.337 182.020, 968 170.790 C 969.375 169.863, 970.197 169.081, 969.828 169.052 C 969.458 169.024, 967.208 170.482, 964.828 172.294 M 734.191 173.446 C 718.655 187.482, 720.980 218.008, 738.279 227.132 C 739.501 227.776, 738.173 226.200, 735.329 223.630 C 720.935 210.621, 720.970 185.741, 735.398 173.391 C 737.577 171.526, 739.055 170, 738.683 170 C 738.310 170, 736.289 171.551, 734.191 173.446 M 846 170.500 C 846 170.775, 846.225 171, 846.500 171 C 846.775 171, 847 170.775, 847 170.500 C 847 170.225, 846.775 170, 846.500 170 C 846.225 170, 846 170.225, 846 170.500 M 184.286 175.500 C 184.294 178.250, 184.488 179.256, 184.718 177.736 C 184.947 176.216, 184.941 173.966, 184.704 172.736 C 184.467 171.506, 184.279 172.750, 184.286 175.500 M 386.370 181 C 386.370 186.775, 386.535 189.137, 386.737 186.250 C 386.939 183.363, 386.939 178.637, 386.737 175.750 C 386.535 172.863, 386.370 175.225, 386.370 181 M 840.080 175.646 C 833.535 183.082, 832.968 186.402, 833.205 215.932 C 833.411 241.500, 833.411 241.500, 833.955 214 C 834.560 183.478, 834.725 182.631, 841.519 175.110 C 843.562 172.850, 844.994 171, 844.701 171 C 844.409 171, 842.330 173.091, 840.080 175.646 M 221.434 173.311 C 221.157 174.032, 221.062 179.770, 221.221 186.061 C 221.512 197.500, 221.512 197.500, 222.006 184.748 C 222.494 172.162, 222.422 170.736, 221.434 173.311 M 224 172.500 C 224 172.775, 224.225 173, 224.500 173 C 224.775 173, 225 172.775, 225 172.500 C 225 172.225, 224.775 172, 224.500 172 C 224.225 172, 224 172.225, 224 172.500 M 262 172.500 C 262 172.775, 262.225 173, 262.500 173 C 262.775 173, 263 172.775, 263 172.500 C 263 172.225, 262.775 172, 262.500 172 C 262.225 172, 262 172.225, 262 172.500 M 395.360 181 C 395.360 186.225, 395.529 188.363, 395.735 185.750 C 395.941 183.137, 395.941 178.863, 395.735 176.250 C 395.529 173.637, 395.360 175.775, 395.360 181 M 225.272 178 C 225.272 180.475, 225.467 181.488, 225.706 180.250 C 225.944 179.012, 225.944 176.988, 225.706 175.750 C 225.467 174.512, 225.272 175.525, 225.272 178 M 310.837 179.084 C 311.188 182.768, 311.396 182.991, 314.355 182.850 C 317.378 182.706, 317.393 182.684, 314.750 182.284 C 312.484 181.941, 312 181.361, 312 178.993 C 312 177.412, 311.654 175.904, 311.232 175.643 C 310.809 175.382, 310.631 176.930, 310.837 179.084 M 345.390 176.427 C 345.088 177.212, 345.009 178.900, 345.214 180.177 C 345.488 181.886, 345.721 181.509, 346.093 178.750 C 346.616 174.868, 346.339 173.952, 345.390 176.427 M 348.825 183.649 C 349.053 189.585, 348.754 192.620, 347.825 193.807 C 346.634 195.329, 346.677 195.361, 348.250 194.128 C 350.076 192.695, 350.942 176.704, 349.250 175.651 C 348.837 175.394, 348.646 178.994, 348.825 183.649 M 184.300 188 C 184.300 191.025, 184.487 192.262, 184.716 190.750 C 184.945 189.238, 184.945 186.762, 184.716 185.250 C 184.487 183.738, 184.300 184.975, 184.300 188 M 175.286 189.500 C 175.294 192.250, 175.488 193.256, 175.718 191.736 C 175.947 190.216, 175.941 187.966, 175.704 186.736 C 175.467 185.506, 175.279 186.750, 175.286 189.500 M 225.300 191 C 225.300 194.025, 225.487 195.262, 225.716 193.750 C 225.945 192.238, 225.945 189.762, 225.716 188.250 C 225.487 186.738, 225.300 187.975, 225.300 191 M 231.208 195.250 C 231.013 204.403, 231.123 205, 233 205 C 234.877 205, 234.987 204.403, 234.792 195.250 C 234.585 185.500, 234.585 185.500, 234.255 194.750 C 234.073 199.838, 233.509 204, 233 204 C 232.491 204, 231.927 199.838, 231.745 194.750 C 231.415 185.500, 231.415 185.500, 231.208 195.250 M 240.413 203.500 C 240.414 213.400, 240.564 217.315, 240.746 212.199 C 240.928 207.084, 240.927 198.984, 240.744 194.199 C 240.561 189.415, 240.412 193.600, 240.413 203.500 M 243.998 204.202 C 243.724 214.489, 243.848 222.555, 244.274 222.129 C 244.699 221.702, 244.923 213.286, 244.771 203.426 C 244.495 185.500, 244.495 185.500, 243.998 204.202 M 250.450 197.748 C 250.492 207.505, 250.755 209.500, 252 209.500 C 253.247 209.500, 253.509 207.477, 253.552 197.500 C 253.604 185.500, 253.604 185.500, 253.270 197.250 C 252.842 212.323, 251.164 212.487, 250.732 197.498 C 250.400 185.997, 250.400 185.997, 250.450 197.748 M 259.180 190.628 C 259.045 194.473, 259.438 196.098, 260.750 197.128 C 262.280 198.328, 262.351 198.309, 261.314 196.975 C 260.662 196.136, 259.955 193.211, 259.744 190.475 C 259.360 185.500, 259.360 185.500, 259.180 190.628 M 263.300 191 C 263.300 194.025, 263.487 195.262, 263.716 193.750 C 263.945 192.238, 263.945 189.762, 263.716 188.250 C 263.487 186.738, 263.300 187.975, 263.300 191 M 269.444 195.489 C 269.492 203.228, 269.743 204.524, 271.250 204.812 C 272.832 205.114, 272.980 204.202, 272.792 195.323 C 272.585 185.500, 272.585 185.500, 272.255 194.750 C 271.837 206.468, 270.185 206.795, 269.731 195.250 C 269.388 186.500, 269.388 186.500, 269.444 195.489 M 278.382 197.500 C 278.384 204.100, 278.546 206.670, 278.741 203.211 C 278.937 199.752, 278.936 194.352, 278.738 191.211 C 278.540 188.070, 278.380 190.900, 278.382 197.500 M 282.214 197.677 C 282.027 208.326, 281.780 209.911, 280.250 210.311 C 278.610 210.739, 278.612 210.775, 280.281 210.884 C 282.857 211.052, 283.105 209.649, 282.748 196.939 C 282.428 185.500, 282.428 185.500, 282.214 197.677 M 288.224 202.191 C 287.998 219.066, 288.480 221.506, 291.544 218.964 C 292.726 217.983, 292.960 214.717, 292.788 201.628 C 292.575 185.500, 292.575 185.500, 292.038 201.918 C 291.270 225.357, 289.165 225.618, 288.749 202.325 C 288.448 185.500, 288.448 185.500, 288.224 202.191 M 297 186.500 C 297 186.775, 297.225 187, 297.500 187 C 297.775 187, 298 186.775, 298 186.500 C 298 186.225, 297.775 186, 297.500 186 C 297.225 186, 297 186.225, 297 186.500 M 301.320 192 C 301.320 195.575, 301.502 197.037, 301.723 195.250 C 301.945 193.463, 301.945 190.537, 301.723 188.750 C 301.502 186.963, 301.320 188.425, 301.320 192 M 307.272 190 C 307.272 192.475, 307.467 193.488, 307.706 192.250 C 307.944 191.012, 307.944 188.988, 307.706 187.750 C 307.467 186.512, 307.272 187.525, 307.272 190 M 311.160 189.050 C 311.072 191.002, 310.441 193.252, 309.757 194.050 C 309.059 194.865, 309.310 194.795, 310.331 193.890 C 311.617 192.751, 312.027 191.291, 311.734 188.890 C 311.320 185.500, 311.320 185.500, 311.160 189.050 M 320.400 200.500 C 320.401 208.750, 320.556 211.992, 320.744 207.704 C 320.932 203.417, 320.931 196.667, 320.742 192.704 C 320.552 188.742, 320.399 192.250, 320.400 200.500 M 326.208 194.691 C 325.996 204.071, 326.782 206.256, 329.544 203.964 C 330.643 203.052, 330.954 200.638, 330.811 194.128 C 330.622 185.500, 330.622 185.500, 330.061 194.421 C 329.269 207.013, 327.188 207.264, 326.746 194.821 C 326.415 185.500, 326.415 185.500, 326.208 194.691 M 339.374 196.500 C 339.376 202.550, 339.541 204.896, 339.740 201.713 C 339.939 198.531, 339.937 193.581, 339.736 190.713 C 339.535 187.846, 339.372 190.450, 339.374 196.500 M 345.272 190 C 345.272 192.475, 345.467 193.488, 345.706 192.250 C 345.944 191.012, 345.944 188.988, 345.706 187.750 C 345.467 186.512, 345.272 187.525, 345.272 190 M 602 191 C 602.825 191.533, 603.950 191.969, 604.500 191.969 C 605.050 191.969, 604.825 191.533, 604 191 C 603.175 190.467, 602.050 190.031, 601.500 190.031 C 600.950 190.031, 601.175 190.467, 602 191 M 394.195 194.500 C 394.215 196.150, 394.439 196.704, 394.693 195.731 C 394.947 194.758, 394.930 193.408, 394.656 192.731 C 394.382 192.054, 394.175 192.850, 394.195 194.500 M 607.333 192.667 C 607.700 193.033, 608.300 193.033, 608.667 192.667 C 609.033 192.300, 608.733 192, 608 192 C 607.267 192, 606.967 192.300, 607.333 192.667 M 385.158 195 C 385.158 196.375, 385.385 196.938, 385.662 196.250 C 385.940 195.563, 385.940 194.438, 385.662 193.750 C 385.385 193.063, 385.158 193.625, 385.158 195 M 611.813 193.683 C 612.534 193.972, 613.397 193.936, 613.729 193.604 C 614.061 193.272, 613.471 193.036, 612.417 193.079 C 611.252 193.127, 611.015 193.364, 611.813 193.683 M 185.158 196 C 185.158 197.375, 185.385 197.938, 185.662 197.250 C 185.940 196.563, 185.940 195.438, 185.662 194.750 C 185.385 194.063, 185.158 194.625, 185.158 196 M 616.813 194.683 C 617.534 194.972, 618.397 194.936, 618.729 194.604 C 619.061 194.272, 618.471 194.036, 617.417 194.079 C 616.252 194.127, 616.015 194.364, 616.813 194.683 M 621.813 195.683 C 622.534 195.972, 623.397 195.936, 623.729 195.604 C 624.061 195.272, 623.471 195.036, 622.417 195.079 C 621.252 195.127, 621.015 195.364, 621.813 195.683 M 176.079 197.583 C 176.127 198.748, 176.364 198.985, 176.683 198.188 C 176.972 197.466, 176.936 196.603, 176.604 196.271 C 176.272 195.939, 176.036 196.529, 176.079 197.583 M 626.813 196.683 C 627.534 196.972, 628.397 196.936, 628.729 196.604 C 629.061 196.272, 628.471 196.036, 627.417 196.079 C 626.252 196.127, 626.015 196.364, 626.813 196.683 M 223 197.500 C 223 197.775, 223.225 198, 223.500 198 C 223.775 198, 224 197.775, 224 197.500 C 224 197.225, 223.775 197, 223.500 197 C 223.225 197, 223 197.225, 223 197.500 M 630.333 197.667 C 630.700 198.033, 631.300 198.033, 631.667 197.667 C 632.033 197.300, 631.733 197, 631 197 C 630.267 197, 629.967 197.300, 630.333 197.667 M 384.079 199.583 C 384.127 200.748, 384.364 200.985, 384.683 200.188 C 384.972 199.466, 384.936 198.603, 384.604 198.271 C 384.272 197.939, 384.036 198.529, 384.079 199.583 M 391.405 205.293 C 390.253 209.257, 388.973 213.400, 388.561 214.500 C 387.955 216.116, 388.024 216.212, 388.916 215 C 390.354 213.047, 394.283 200.335, 393.841 199.065 C 393.653 198.526, 392.557 201.329, 391.405 205.293 M 633.333 198.667 C 633.700 199.033, 634.300 199.033, 634.667 198.667 C 635.033 198.300, 634.733 198, 634 198 C 633.267 198, 632.967 198.300, 633.333 198.667 M 186.079 200.583 C 186.127 201.748, 186.364 201.985, 186.683 201.188 C 186.972 200.466, 186.936 199.603, 186.604 199.271 C 186.272 198.939, 186.036 199.529, 186.079 200.583 M 300.405 200.155 C 299.962 200.870, 300.130 201.038, 300.845 200.595 C 301.480 200.203, 302 199.684, 302 199.441 C 302 198.607, 301.117 199.002, 300.405 200.155 M 636 199.500 C 636 199.775, 636.225 200, 636.500 200 C 636.775 200, 637 199.775, 637 199.500 C 637 199.225, 636.775 199, 636.500 199 C 636.225 199, 636 199.225, 636 199.500 M 177.079 201.583 C 177.127 202.748, 177.364 202.985, 177.683 202.188 C 177.972 201.466, 177.936 200.603, 177.604 200.271 C 177.272 199.939, 177.036 200.529, 177.079 201.583 M 298 200.500 C 298 200.775, 298.225 201, 298.500 201 C 298.775 201, 299 200.775, 299 200.500 C 299 200.225, 298.775 200, 298.500 200 C 298.225 200, 298 200.225, 298 200.500 M 640.875 202.589 C 649.642 209.737, 650.275 222.984, 642.295 232.321 C 638.723 236.500, 638.723 236.500, 642.780 232.377 C 652.069 222.933, 650.328 206.183, 639.500 200.827 C 638.400 200.283, 639.019 201.076, 640.875 202.589 M 599.813 201.683 C 600.534 201.972, 601.397 201.936, 601.729 201.604 C 602.061 201.272, 601.471 201.036, 600.417 201.079 C 599.252 201.127, 599.015 201.364, 599.813 201.683 M 383.067 203 C 383.017 203.825, 381.454 207.984, 379.595 212.243 C 377.736 216.501, 376.575 219.763, 377.015 219.491 C 378.351 218.665, 384.152 203.939, 383.638 202.677 C 383.344 201.955, 383.123 202.080, 383.067 203 M 603.813 202.683 C 604.534 202.972, 605.397 202.936, 605.729 202.604 C 606.061 202.272, 605.471 202.036, 604.417 202.079 C 603.252 202.127, 603.015 202.364, 603.813 202.683 M 187.086 204 C 187.055 204.825, 187.467 206.175, 188 207 C 189.181 208.828, 189.181 207.249, 188 204.500 C 187.433 203.181, 187.122 203.011, 187.086 204 M 608.813 203.683 C 609.534 203.972, 610.397 203.936, 610.729 203.604 C 611.061 203.272, 610.471 203.036, 609.417 203.079 C 608.252 203.127, 608.015 203.364, 608.813 203.683 M 178.079 205.583 C 178.127 206.748, 178.364 206.985, 178.683 206.188 C 178.972 205.466, 178.936 204.603, 178.604 204.271 C 178.272 203.939, 178.036 204.529, 178.079 205.583 M 613.750 204.662 C 614.438 204.940, 615.563 204.940, 616.250 204.662 C 616.938 204.385, 616.375 204.158, 615 204.158 C 613.625 204.158, 613.063 204.385, 613.750 204.662 M 618.750 205.662 C 619.438 205.940, 620.563 205.940, 621.250 205.662 C 621.938 205.385, 621.375 205.158, 620 205.158 C 618.625 205.158, 618.063 205.385, 618.750 205.662 M 623.813 206.683 C 624.534 206.972, 625.397 206.936, 625.729 206.604 C 626.061 206.272, 625.471 206.036, 624.417 206.079 C 623.252 206.127, 623.015 206.364, 623.813 206.683 M 630.219 209.052 C 638.127 213.228, 638.376 223.361, 630.686 228.050 C 628.934 229.118, 628.107 229.994, 628.850 229.996 C 632.145 230.005, 637 223.349, 637 218.823 C 637 212.979, 631.903 206.790, 627.300 207.044 C 626.860 207.069, 628.174 207.972, 630.219 209.052 M 179.058 208.315 C 178.971 209.535, 183.214 219.120, 183.648 218.685 C 183.855 218.479, 182.919 215.878, 181.569 212.905 C 180.220 209.932, 179.089 207.867, 179.058 208.315 M 339 208.760 C 339 209.361, 338.212 210.059, 337.250 210.311 C 335.672 210.723, 335.666 210.779, 337.191 210.884 C 338.995 211.008, 340.599 209.266, 339.600 208.267 C 339.270 207.937, 339 208.159, 339 208.760 M 189.026 209.354 C 188.972 211.109, 196.179 223.782, 199.105 227.078 C 202.144 230.500, 202.144 230.500, 199.433 226.723 C 197.941 224.646, 194.996 219.696, 192.887 215.723 C 190.778 211.750, 189.041 208.884, 189.026 209.354 M 320 217.940 C 320 218.740, 319.349 218.966, 318.250 218.548 C 316.847 218.014, 316.748 218.131, 317.750 219.141 C 318.712 220.110, 319.272 220.128, 320.183 219.217 C 320.834 218.566, 321.059 217.726, 320.683 217.350 C 320.308 216.974, 320 217.240, 320 217.940 M 386.144 219.750 C 385.053 222.300, 385.078 222.359, 386.484 220.559 C 387.318 219.491, 388 218.254, 388 217.809 C 388 216.289, 387.322 216.999, 386.144 219.750 M 1005.453 223.203 C 1003.279 225.514, 1002.400 226.784, 1003.500 226.025 C 1004.600 225.266, 1006.506 223.488, 1007.736 222.074 C 1009.777 219.726, 1010.170 219.625, 1012.236 220.912 C 1014.310 222.203, 1014.385 222.182, 1013.128 220.661 C 1011.068 218.169, 1009.789 218.593, 1005.453 223.203 M 185.886 223.776 C 193.713 239.119, 215.352 256.826, 229.500 259.465 C 231.150 259.773, 230.250 259.184, 227.500 258.157 C 209.936 251.597, 194.167 238.139, 186.600 223.250 C 185.692 221.463, 184.726 220, 184.454 220 C 184.182 220, 184.826 221.699, 185.886 223.776 M 371.630 226.251 C 369.438 229.224, 368.788 230.551, 370.130 229.310 C 372.242 227.358, 376.587 220.998, 375.807 221.001 C 375.638 221.002, 373.759 223.364, 371.630 226.251 M 241 222.500 C 241 222.775, 241.225 223, 241.500 223 C 241.775 223, 242 222.775, 242 222.500 C 242 222.225, 241.775 222, 241.500 222 C 241.225 222, 241 222.225, 241 222.500 M 581.436 226.519 C 579.224 230.293, 579 231.295, 580.077 232.592 C 581.536 234.351, 588.975 238.358, 589.607 237.726 C 589.834 237.499, 588.213 236.498, 586.004 235.502 C 579.933 232.764, 579.455 231.741, 582.074 227.083 C 583.311 224.882, 584.770 223.358, 585.316 223.695 C 585.874 224.040, 585.996 223.803, 585.595 223.155 C 584.532 221.434, 584.312 221.612, 581.436 226.519 M 1015.500 223 C 1015.840 223.550, 1016.343 224, 1016.618 224 C 1016.893 224, 1016.840 223.550, 1016.500 223 C 1016.160 222.450, 1015.657 222, 1015.382 222 C 1015.107 222, 1015.160 222.450, 1015.500 223 M 381.540 227.523 C 375.973 237.020, 364.993 247.149, 352.500 254.310 C 349.750 255.887, 348.400 256.890, 349.500 256.540 C 357.886 253.870, 377.902 236.271, 382.814 227.250 C 385.901 221.581, 384.896 221.796, 381.540 227.523 M 587 224.490 C 587 225.175, 593.123 228.210, 593.580 227.753 C 593.797 227.536, 592.406 226.610, 590.487 225.695 C 588.569 224.781, 587 224.239, 587 224.490 M 1016.160 227.472 C 1014.897 229.315, 1012.095 232.048, 1009.932 233.547 C 1006.262 236.090, 1004.450 238.014, 1007.250 236.395 C 1012.603 233.299, 1020.040 225.706, 1018.867 224.534 C 1018.641 224.307, 1017.422 225.629, 1016.160 227.472 M 724.221 249.250 C 724.442 272.500, 724.442 272.500, 724.971 250.192 C 725.500 227.885, 725.500 227.885, 729 231.524 C 730.925 233.526, 733.303 235.601, 734.284 236.135 C 735.265 236.669, 733.487 234.608, 730.334 231.553 C 727.181 228.499, 724.466 226, 724.300 226 C 724.135 226, 724.099 236.463, 724.221 249.250 M 925.500 229.068 C 923.850 230.125, 922.962 230.992, 923.527 230.995 C 924.093 230.998, 925.484 230.350, 926.618 229.555 C 928.543 228.207, 928.794 228.344, 930.341 231.589 C 932.555 236.232, 932.486 236.556, 928.968 238.013 C 927.300 238.704, 926.133 239.467, 926.375 239.708 C 927.083 240.417, 933 237.046, 933 235.934 C 933 234.912, 929.157 226.937, 928.730 227.073 C 928.603 227.113, 927.150 228.011, 925.500 229.068 M 969 227.500 C 969 227.775, 969.225 228, 969.500 228 C 969.775 228, 970 227.775, 970 227.500 C 970 227.225, 969.775 227, 969.500 227 C 969.225 227, 969 227.225, 969 227.500 M 999 228 C 998.099 228.582, 997.975 228.975, 998.691 228.985 C 999.346 228.993, 1000.160 228.550, 1000.500 228 C 1001.267 226.758, 1000.921 226.758, 999 228 M 596 229 C 596.825 229.533, 598.175 229.945, 599 229.914 C 599.989 229.878, 599.819 229.567, 598.500 229 C 595.751 227.819, 594.172 227.819, 596 229 M 741 228.500 C 741 228.775, 741.225 229, 741.500 229 C 741.775 229, 742 228.775, 742 228.500 C 742 228.225, 741.775 228, 741.500 228 C 741.225 228, 741 228.225, 741 228.500 M 971 228.500 C 971 228.775, 971.225 229, 971.500 229 C 971.775 229, 972 228.775, 972 228.500 C 972 228.225, 971.775 228, 971.500 228 C 971.225 228, 971 228.225, 971 228.500 M 743.333 229.667 C 743.700 230.033, 744.300 230.033, 744.667 229.667 C 745.033 229.300, 744.733 229, 744 229 C 743.267 229, 742.967 229.300, 743.333 229.667 M 973.333 229.667 C 973.700 230.033, 974.300 230.033, 974.667 229.667 C 975.033 229.300, 974.733 229, 974 229 C 973.267 229, 972.967 229.300, 973.333 229.667 M 995.333 229.667 C 995.700 230.033, 996.300 230.033, 996.667 229.667 C 997.033 229.300, 996.733 229, 996 229 C 995.267 229, 994.967 229.300, 995.333 229.667 M 601.813 230.683 C 602.534 230.972, 603.397 230.936, 603.729 230.604 C 604.061 230.272, 603.471 230.036, 602.417 230.079 C 601.252 230.127, 601.015 230.364, 601.813 230.683 M 625.333 230.667 C 625.700 231.033, 626.300 231.033, 626.667 230.667 C 627.033 230.300, 626.733 230, 626 230 C 625.267 230, 624.967 230.300, 625.333 230.667 M 746.333 230.667 C 746.700 231.033, 747.300 231.033, 747.667 230.667 C 748.033 230.300, 747.733 230, 747 230 C 746.267 230, 745.967 230.300, 746.333 230.667 M 762.813 230.683 C 763.534 230.972, 764.397 230.936, 764.729 230.604 C 765.061 230.272, 764.471 230.036, 763.417 230.079 C 762.252 230.127, 762.015 230.364, 762.813 230.683 M 976.813 230.683 C 977.534 230.972, 978.397 230.936, 978.729 230.604 C 979.061 230.272, 978.471 230.036, 977.417 230.079 C 976.252 230.127, 976.015 230.364, 976.813 230.683 M 991.813 230.683 C 992.534 230.972, 993.397 230.936, 993.729 230.604 C 994.061 230.272, 993.471 230.036, 992.417 230.079 C 991.252 230.127, 991.015 230.364, 991.813 230.683 M 607.269 231.693 C 608.242 231.947, 609.592 231.930, 610.269 231.656 C 610.946 231.382, 610.150 231.175, 608.500 231.195 C 606.850 231.215, 606.296 231.439, 607.269 231.693 M 619.750 231.662 C 620.438 231.940, 621.563 231.940, 622.250 231.662 C 622.938 231.385, 622.375 231.158, 621 231.158 C 619.625 231.158, 619.063 231.385, 619.750 231.662 M 753.264 231.718 C 754.784 231.947, 757.034 231.941, 758.264 231.704 C 759.494 231.467, 758.250 231.279, 755.500 231.286 C 752.750 231.294, 751.744 231.488, 753.264 231.718 M 911.750 231.662 C 912.438 231.940, 913.563 231.940, 914.250 231.662 C 914.938 231.385, 914.375 231.158, 913 231.158 C 911.625 231.158, 911.063 231.385, 911.750 231.662 M 918.750 231.662 C 919.438 231.940, 920.563 231.940, 921.250 231.662 C 921.938 231.385, 921.375 231.158, 920 231.158 C 918.625 231.158, 918.063 231.385, 918.750 231.662 M 983.762 231.707 C 985.006 231.946, 986.806 231.937, 987.762 231.687 C 988.718 231.437, 987.700 231.241, 985.500 231.252 C 983.300 231.263, 982.518 231.468, 983.762 231.707 M 203 232.313 C 203 232.485, 204.463 233.948, 206.250 235.563 C 209.500 238.500, 209.500 238.500, 206.563 235.250 C 203.825 232.221, 203 231.540, 203 232.313 M 635 237.500 C 633.625 238.286, 632.976 238.945, 633.559 238.965 C 634.141 238.984, 635.491 238.339, 636.559 237.532 C 639.028 235.664, 638.239 235.648, 635 237.500 M 776 237 C 775.099 237.582, 774.975 237.975, 775.691 237.985 C 776.346 237.993, 777.160 237.550, 777.500 237 C 778.267 235.758, 777.921 235.758, 776 237 M 359.398 239.046 C 358.272 240.172, 353.560 243.084, 348.926 245.517 C 344.292 247.951, 340.881 249.955, 341.347 249.971 C 343.179 250.034, 357.861 241.777, 360.038 239.459 C 362.823 236.495, 362.292 236.152, 359.398 239.046 M 737 237.500 C 737 237.775, 737.225 238, 737.500 238 C 737.775 238, 738 237.775, 738 237.500 C 738 237.225, 737.775 237, 737.500 237 C 737.225 237, 737 237.225, 737 237.500 M 965 237.500 C 965 237.775, 965.225 238, 965.500 238 C 965.775 238, 966 237.775, 966 237.500 C 966 237.225, 965.775 237, 965.500 237 C 965.225 237, 965 237.225, 965 237.500 M 1004 237.500 C 1004 237.775, 1004.225 238, 1004.500 238 C 1004.775 238, 1005 237.775, 1005 237.500 C 1005 237.225, 1004.775 237, 1004.500 237 C 1004.225 237, 1004 237.225, 1004 237.500 M 210.893 239.254 C 212.332 241.112, 223.157 248.002, 224.631 247.997 C 225.109 247.996, 222.800 246.376, 219.500 244.398 C 216.200 242.420, 212.608 240.058, 211.517 239.151 C 209.652 237.598, 209.615 237.604, 210.893 239.254 M 591.333 238.667 C 591.700 239.033, 592.300 239.033, 592.667 238.667 C 593.033 238.300, 592.733 238, 592 238 C 591.267 238, 590.967 238.300, 591.333 238.667 M 739 238.500 C 739 238.775, 739.225 239, 739.500 239 C 739.775 239, 740 238.775, 740 238.500 C 740 238.225, 739.775 238, 739.500 238 C 739.225 238, 739 238.225, 739 238.500 M 773 238.500 C 773 238.775, 773.225 239, 773.500 239 C 773.775 239, 774 238.775, 774 238.500 C 774 238.225, 773.775 238, 773.500 238 C 773.225 238, 773 238.225, 773 238.500 M 967.333 238.667 C 967.700 239.033, 968.300 239.033, 968.667 238.667 C 969.033 238.300, 968.733 238, 968 238 C 967.267 238, 966.967 238.300, 967.333 238.667 M 1000 239 C 999.175 239.533, 998.950 239.969, 999.500 239.969 C 1000.050 239.969, 1001.175 239.533, 1002 239 C 1002.825 238.467, 1003.050 238.031, 1002.500 238.031 C 1001.950 238.031, 1000.825 238.467, 1000 239 M 594.333 239.667 C 594.700 240.033, 595.300 240.033, 595.667 239.667 C 596.033 239.300, 595.733 239, 595 239 C 594.267 239, 593.967 239.300, 594.333 239.667 M 630.333 239.667 C 630.700 240.033, 631.300 240.033, 631.667 239.667 C 632.033 239.300, 631.733 239, 631 239 C 630.267 239, 629.967 239.300, 630.333 239.667 M 741.333 239.667 C 741.700 240.033, 742.300 240.033, 742.667 239.667 C 743.033 239.300, 742.733 239, 742 239 C 741.267 239, 740.967 239.300, 741.333 239.667 M 770.333 239.667 C 770.700 240.033, 771.300 240.033, 771.667 239.667 C 772.033 239.300, 771.733 239, 771 239 C 770.267 239, 769.967 239.300, 770.333 239.667 M 903 240 C 903.825 240.533, 904.950 240.969, 905.500 240.969 C 906.050 240.969, 905.825 240.533, 905 240 C 904.175 239.467, 903.050 239.031, 902.500 239.031 C 901.950 239.031, 902.175 239.467, 903 240 M 970.333 239.667 C 970.700 240.033, 971.300 240.033, 971.667 239.667 C 972.033 239.300, 971.733 239, 971 239 C 970.267 239, 969.967 239.300, 970.333 239.667 M 598.813 240.683 C 599.534 240.972, 600.397 240.936, 600.729 240.604 C 601.061 240.272, 600.471 240.036, 599.417 240.079 C 598.252 240.127, 598.015 240.364, 598.813 240.683 M 626.813 240.683 C 627.534 240.972, 628.397 240.936, 628.729 240.604 C 629.061 240.272, 628.471 240.036, 627.417 240.079 C 626.252 240.127, 626.015 240.364, 626.813 240.683 M 744.813 240.683 C 745.534 240.972, 746.397 240.936, 746.729 240.604 C 747.061 240.272, 746.471 240.036, 745.417 240.079 C 744.252 240.127, 744.015 240.364, 744.813 240.683 M 766.813 240.683 C 767.534 240.972, 768.397 240.936, 768.729 240.604 C 769.061 240.272, 768.471 240.036, 767.417 240.079 C 766.252 240.127, 766.015 240.364, 766.813 240.683 M 923.333 240.667 C 923.700 241.033, 924.300 241.033, 924.667 240.667 C 925.033 240.300, 924.733 240, 924 240 C 923.267 240, 922.967 240.300, 923.333 240.667 M 973.813 240.683 C 974.534 240.972, 975.397 240.936, 975.729 240.604 C 976.061 240.272, 975.471 240.036, 974.417 240.079 C 973.252 240.127, 973.015 240.364, 973.813 240.683 M 994.813 240.683 C 995.534 240.972, 996.397 240.936, 996.729 240.604 C 997.061 240.272, 996.471 240.036, 995.417 240.079 C 994.252 240.127, 994.015 240.364, 994.813 240.683 M 604.269 241.693 C 605.242 241.947, 606.592 241.930, 607.269 241.656 C 607.946 241.382, 607.150 241.175, 605.500 241.195 C 603.850 241.215, 603.296 241.439, 604.269 241.693 M 620.269 241.693 C 621.242 241.947, 622.592 241.930, 623.269 241.656 C 623.946 241.382, 623.150 241.175, 621.500 241.195 C 619.850 241.215, 619.296 241.439, 620.269 241.693 M 752.776 241.733 C 755.128 241.945, 758.728 241.942, 760.776 241.727 C 762.824 241.512, 760.900 241.339, 756.500 241.343 C 752.100 241.346, 750.424 241.522, 752.776 241.733 M 911.250 241.728 C 913.313 241.944, 916.688 241.944, 918.750 241.728 C 920.813 241.513, 919.125 241.336, 915 241.336 C 910.875 241.336, 909.188 241.513, 911.250 241.728 M 981.728 241.722 C 983.503 241.943, 986.653 241.946, 988.728 241.730 C 990.802 241.513, 989.350 241.333, 985.500 241.328 C 981.650 241.324, 979.952 241.501, 981.728 241.722 M 227 249 C 227.825 249.533, 228.950 249.969, 229.500 249.969 C 230.050 249.969, 229.825 249.533, 229 249 C 228.175 248.467, 227.050 248.031, 226.500 248.031 C 225.950 248.031, 226.175 248.467, 227 249 M 231.333 250.667 C 231.700 251.033, 232.300 251.033, 232.667 250.667 C 233.033 250.300, 232.733 250, 232 250 C 231.267 250, 230.967 250.300, 231.333 250.667 M 335 251 C 332.990 251.644, 332.892 251.806, 334.500 251.830 C 335.600 251.846, 337.400 251.473, 338.500 251 C 341.048 249.905, 338.419 249.905, 335 251 M 236.499 252.066 C 238.148 252.558, 240.061 253.730, 240.749 254.671 C 241.437 255.612, 242 255.872, 242 255.248 C 242 253.616, 237.908 250.985, 235.527 251.086 C 234.098 251.147, 234.385 251.436, 236.499 252.066 M 328.750 252.662 C 329.438 252.940, 330.563 252.940, 331.250 252.662 C 331.938 252.385, 331.375 252.158, 330 252.158 C 328.625 252.158, 328.063 252.385, 328.750 252.662 M 273.638 273.053 C 261.187 284.082, 251 293.321, 251 293.585 C 251 293.848, 260.046 286.062, 271.102 276.282 C 282.159 266.502, 292.450 257.501, 293.973 256.279 C 296.482 254.265, 298.035 254.029, 310.620 253.748 C 324.500 253.439, 324.500 253.439, 310.388 253.219 C 296.276 253, 296.276 253, 273.638 273.053 M 342 258.500 C 340.075 259.241, 339.175 259.862, 340 259.879 C 340.825 259.896, 342.850 259.292, 344.500 258.536 C 348.362 256.768, 346.566 256.742, 342 258.500 M 335.813 260.683 C 336.534 260.972, 337.397 260.936, 337.729 260.604 C 338.061 260.272, 337.471 260.036, 336.417 260.079 C 335.252 260.127, 335.015 260.364, 335.813 260.683 M 330.269 261.693 C 331.242 261.947, 332.592 261.930, 333.269 261.656 C 333.946 261.382, 333.150 261.175, 331.500 261.195 C 329.850 261.215, 329.296 261.439, 330.269 261.693 M 269.906 288.315 C 253.630 302.717, 239.455 315.050, 238.406 315.722 C 236.567 316.901, 236.571 316.920, 238.500 316.283 C 239.600 315.920, 253.870 303.795, 270.212 289.340 C 299.923 263.059, 299.923 263.059, 313.212 262.748 C 326.500 262.437, 326.500 262.437, 313 262.283 C 299.500 262.130, 299.500 262.130, 269.906 288.315 M 245.946 297.750 C 242.500 301.500, 242.500 301.500, 246.250 298.054 C 249.740 294.846, 250.460 294, 249.696 294 C 249.529 294, 247.842 295.688, 245.946 297.750 M 233 312.711 C 233 313.285, 233.787 314.373, 234.750 315.128 C 236.369 316.397, 236.390 316.350, 235.033 314.500 C 234.226 313.400, 233.439 312.313, 233.283 312.083 C 233.127 311.854, 233 312.137, 233 312.711" stroke="none" fill="#0c4c84" fill-rule="evenodd"/><path d="M 480 198 C 480 321.778, 480.174 338, 481.500 338 C 482.826 338, 483 321.778, 483 198 C 483 74.222, 482.826 58, 481.500 58 C 480.174 58, 480 74.222, 480 198 M 241.500 100.715 C 162.388 111.655, 151.646 232.224, 227.488 257.986 C 232.500 259.689, 232.500 259.689, 233 286.310 C 233.707 323.943, 230.046 323.782, 270.546 287.959 C 299.624 262.239, 299.624 262.239, 316.562 261.771 C 411.961 259.131, 424.801 116.216, 331 101.065 C 324.852 100.072, 248.314 99.772, 241.500 100.715 M 242.378 109.090 C 171.485 117.360, 162.997 227.805, 231.510 250.500 C 242.546 254.155, 242 252.689, 242 278.691 C 242 290.961, 242.245 301, 242.545 301 C 242.844 301, 255.024 290.486, 269.611 277.635 C 296.133 254.269, 296.133 254.269, 313.317 253.723 C 394.790 251.134, 417.075 140.134, 341.737 112.159 C 331.242 108.261, 266.598 106.265, 242.378 109.090 M 670.337 123.477 C 665.739 126.697, 666.697 134.804, 671.932 136.972 C 675.409 138.412, 679.605 137.402, 681.523 134.663 C 686.557 127.476, 677.524 118.443, 670.337 123.477 M 890.788 147.250 C 890.500 156.500, 890.500 156.500, 883.250 156.794 C 871.641 157.264, 871.839 166, 883.459 166 C 890.917 166, 890.917 166, 891.209 196.331 C 891.542 231.030, 892.209 233.644, 902 238.645 C 909.850 242.655, 932 240.636, 932 235.911 C 932 231.118, 928.690 228.375, 925.142 230.227 C 907.184 239.605, 901.014 229.896, 901.006 192.250 C 901 166, 901 166, 914 166 C 927 166, 927 166, 927 161.500 C 927 157, 927 157, 914 157 C 901 157, 901 157, 901 147.500 C 901 132.684, 891.248 132.446, 890.788 147.250 M 241 165.063 C 241 186.545, 234.892 194.361, 234.211 173.750 C 233.839 162.474, 232 162.266, 232 173.500 C 232 184.072, 225.461 187.479, 224.805 177.250 C 224.189 167.661, 222.498 172.566, 222.219 184.750 C 221.980 195.204, 222.163 197, 223.469 197 C 224.658 197, 225 195.771, 225 191.500 C 225 186, 225 186, 228.500 186 C 232 186, 232 186, 232 195 C 232 200.333, 232.407 204, 233 204 C 233.593 204, 234 200.333, 234 195 C 234 186, 234 186, 237.477 186 C 240.955 186, 240.955 186, 241.227 204.250 C 241.396 215.568, 241.880 222.500, 242.500 222.500 C 243.120 222.500, 243.604 215.568, 243.773 204.250 C 244.045 186, 244.045 186, 247.523 186 C 251 186, 251 186, 251 197.500 C 251 204.500, 251.391 209, 252 209 C 252.609 209, 253 204.500, 253 197.500 C 253 184.108, 259.453 178.434, 260.198 191.171 C 260.631 198.578, 263 198.927, 263 191.583 C 263 186, 263 186, 266.500 186 C 270 186, 270 186, 270 195 C 270 200.333, 270.407 204, 271 204 C 271.593 204, 272 200.333, 272 195 C 272 186, 272 186, 275.500 186 C 279 186, 279 186, 279 198 C 279 208, 279.250 210, 280.500 210 C 281.750 210, 282 208, 282 198 C 282 186, 282 186, 285.500 186 C 289 186, 289 186, 289 202.583 C 289 215.405, 289.284 219.072, 290.250 218.751 C 291.166 218.447, 291.573 214.012, 291.775 202.168 C 292.050 186, 292.050 186, 295.025 186 C 298 186, 298 186, 298 192.941 C 298 199.593, 299.039 202.364, 300.592 199.852 C 300.993 199.202, 301.218 195.820, 301.092 192.335 C 300.862 186, 300.862 186, 304.431 186 C 307.940 186, 308 186.068, 308 190.083 C 308 195.294, 310.365 194.948, 310.810 189.673 C 311.975 175.895, 317 185.855, 317 201.941 C 317 216.614, 317.657 220.676, 319.699 218.634 C 320.011 218.323, 320.181 210.853, 320.077 202.034 C 319.888 186, 319.888 186, 323.444 186 C 327 186, 327 186, 327 195.083 C 327 207.563, 329.371 207.211, 329.789 194.669 C 330.327 178.535, 336 181.577, 336 198 C 336 208, 336.250 210, 337.500 210 C 339.231 210, 339.150 210.709, 339.004 196.750 C 338.892 186, 338.892 186, 342.446 186 C 345.938 186, 346 186.071, 346 190.083 C 346 192.906, 346.386 194.038, 347.250 193.750 C 348.795 193.235, 349.032 176.133, 347.500 175.750 C 346.950 175.613, 346.359 176.963, 346.187 178.750 C 345.164 189.356, 338.859 182.459, 339.105 171.003 C 339.234 164.955, 339.068 159.735, 338.736 159.403 C 336.812 157.478, 336 161.084, 336 171.559 C 336 187.519, 330.313 190.057, 329.789 174.331 C 329.382 162.127, 327.185 161.651, 326.790 173.680 C 326.184 192.109, 320.535 186.537, 320.368 167.346 C 320.296 159.011, 319.927 151.691, 319.549 151.080 C 317.702 148.091, 317 152.492, 317 167.059 C 317 183.042, 312.008 193.060, 310.810 179.479 C 310.419 175.034, 308.660 174.866, 308 179.211 C 306.889 186.523, 301.557 183.808, 301.204 175.750 C 300.770 165.835, 298 166.051, 298 176 C 298 183, 298 183, 295.025 183 C 292.050 183, 292.050 183, 291.775 166.750 C 291.412 145.276, 289.668 145.119, 289 166.500 C 288.301 188.874, 282 192.906, 282 170.980 C 282 154.013, 279.628 154.365, 279.218 171.393 C 278.827 187.639, 272.737 189.688, 272.211 173.750 C 272.052 168.938, 271.507 165, 271 165 C 270.493 165, 269.948 168.938, 269.789 173.750 C 269.416 185.045, 263.419 188.530, 262.804 177.809 C 262.637 174.889, 262.050 172.500, 261.500 172.500 C 260.950 172.500, 260.363 174.889, 260.196 177.809 C 259.503 189.893, 253.559 184.732, 253.216 171.750 C 253.060 165.838, 252.513 161, 252 161 C 251.487 161, 250.940 165.838, 250.784 171.750 C 250.193 194.133, 244 188.029, 244 165.063 C 244 149.674, 243.778 147, 242.500 147 C 241.222 147, 241 149.674, 241 165.063 M 606.231 157.111 C 570.743 163.022, 574.646 196.214, 611.685 203.482 C 632.890 207.643, 637 210.091, 637 218.558 C 637 232.506, 611.872 236.867, 590.847 226.568 C 584.140 223.283, 576.893 227.552, 580.927 232.412 C 594.127 248.318, 641.890 242.462, 646.928 224.321 C 651.548 207.684, 644.031 200.316, 616.580 194.571 C 598.523 190.792, 593 187.368, 593 179.951 C 593 165.810, 616.754 161.382, 639.049 171.366 C 642.083 172.725, 645.628 164.447, 642.787 162.639 C 634.790 157.548, 618.448 155.077, 606.231 157.111 M 745 157.605 C 738.053 159.465, 732.655 162.883, 727.271 168.829 C 723.041 173.500, 723.041 173.500, 723.021 165.250 C 723 157, 723 157, 718 157 C 713 157, 713 157, 713 214.500 C 713 272, 713 272, 718.500 272 C 724 272, 724 272, 724 249 C 724 236.350, 724.216 226, 724.479 226 C 724.743 226, 726.817 228.016, 729.088 230.480 C 746.286 249.137, 782.653 242.473, 793.552 218.667 C 809.357 184.144, 780.661 148.054, 745 157.605 M 852.929 157.367 C 846.216 159.178, 839.235 163.628, 836.182 168.044 C 832.455 173.436, 832 173.050, 832 164.500 C 832 157, 832 157, 827 157 C 822 157, 822 157, 822 199 C 822 241, 822 241, 827.500 241 C 833 241, 833 241, 833 215.682 C 833 177.986, 838.467 167.676, 858.928 166.786 C 864 166.565, 864 166.565, 864 161.283 C 864 155.258, 862.595 154.761, 852.929 157.367 M 972.892 157.387 C 932.393 169.106, 932.075 227.791, 972.448 239.528 C 988.477 244.188, 1018.166 234.828, 1017.988 225.171 C 1017.936 222.364, 1008 219.131, 1008 221.921 C 1008 226.289, 990.883 232.457, 981.618 231.427 C 941.723 226.991, 944.739 165.537, 984.845 165.654 C 993.946 165.681, 1000.954 168.294, 1006.064 173.566 C 1010.028 177.656, 1010.124 177.667, 1014.668 174.580 C 1026.540 166.512, 991.374 152.039, 972.892 157.387 M 670 199 C 670 241, 670 241, 675 241 C 680 241, 680 241, 680 199 C 680 157, 680 157, 675 157 C 670 157, 670 157, 670 199 M 741.491 168.785 C 717.256 180.490, 717.529 217.539, 741.933 228.861 C 767.922 240.918, 794.014 215.983, 785.481 187.247 C 780.288 169.760, 758.448 160.595, 741.491 168.785" stroke="none" fill="#0c63b3" fill-rule="evenodd"/></svg>
